<svg width="14" height="14" viewBox="0 0 14 14" fill="none" xmlns="http://www.w3.org/2000/svg">
<path d="M3.66668 2.99992H3.00001V0.999919C3.00001 0.823108 2.92977 0.653538 2.80475 0.528514C2.67972 0.40349 2.51015 0.333252 2.33334 0.333252C2.15653 0.333252 1.98696 0.40349 1.86194 0.528514C1.73691 0.653538 1.66668 0.823108 1.66668 0.999919V2.99992H1.00001C0.823199 2.99992 0.65363 3.07016 0.528606 3.19518C0.403581 3.32021 0.333344 3.48977 0.333344 3.66659C0.333344 3.8434 0.403581 4.01297 0.528606 4.13799C0.65363 4.26301 0.823199 4.33325 1.00001 4.33325H3.66668C3.84349 4.33325 4.01306 4.26301 4.13808 4.13799C4.26311 4.01297 4.33334 3.8434 4.33334 3.66659C4.33334 3.48977 4.26311 3.32021 4.13808 3.19518C4.01306 3.07016 3.84349 2.99992 3.66668 2.99992ZM2.33334 5.66659C2.15653 5.66659 1.98696 5.73682 1.86194 5.86185C1.73691 5.98687 1.66668 6.15644 1.66668 6.33325V12.9999C1.66668 13.1767 1.73691 13.3463 1.86194 13.4713C1.98696 13.5963 2.15653 13.6666 2.33334 13.6666C2.51015 13.6666 2.67972 13.5963 2.80475 13.4713C2.92977 13.3463 3.00001 13.1767 3.00001 12.9999V6.33325C3.00001 6.15644 2.92977 5.98687 2.80475 5.86185C2.67972 5.73682 2.51015 5.66659 2.33334 5.66659ZM7.00001 10.9999C6.8232 10.9999 6.65363 11.0702 6.52861 11.1952C6.40358 11.3202 6.33334 11.4898 6.33334 11.6666V12.9999C6.33334 13.1767 6.40358 13.3463 6.52861 13.4713C6.65363 13.5963 6.8232 13.6666 7.00001 13.6666C7.17682 13.6666 7.34639 13.5963 7.47141 13.4713C7.59644 13.3463 7.66668 13.1767 7.66668 12.9999V11.6666C7.66668 11.4898 7.59644 11.3202 7.47141 11.1952C7.34639 11.0702 7.17682 10.9999 7.00001 10.9999ZM13 5.66659H12.3333V0.999919C12.3333 0.823108 12.2631 0.653538 12.1381 0.528514C12.0131 0.40349 11.8435 0.333252 11.6667 0.333252C11.4899 0.333252 11.3203 0.40349 11.1953 0.528514C11.0702 0.653538 11 0.823108 11 0.999919V5.66659H10.3333C10.1565 5.66659 9.98696 5.73682 9.86194 5.86185C9.73691 5.98687 9.66668 6.15644 9.66668 6.33325C9.66668 6.51006 9.73691 6.67963 9.86194 6.80466C9.98696 6.92968 10.1565 6.99992 10.3333 6.99992H13C13.1768 6.99992 13.3464 6.92968 13.4714 6.80466C13.5964 6.67963 13.6667 6.51006 13.6667 6.33325C13.6667 6.15644 13.5964 5.98687 13.4714 5.86185C13.3464 5.73682 13.1768 5.66659 13 5.66659ZM11.6667 8.33325C11.4899 8.33325 11.3203 8.40349 11.1953 8.52851C11.0702 8.65354 11 8.82311 11 8.99992V12.9999C11 13.1767 11.0702 13.3463 11.1953 13.4713C11.3203 13.5963 11.4899 13.6666 11.6667 13.6666C11.8435 13.6666 12.0131 13.5963 12.1381 13.4713C12.2631 13.3463 12.3333 13.1767 12.3333 12.9999V8.99992C12.3333 8.82311 12.2631 8.65354 12.1381 8.52851C12.0131 8.40349 11.8435 8.33325 11.6667 8.33325ZM8.33334 8.33325H7.66668V0.999919C7.66668 0.823108 7.59644 0.653538 7.47141 0.528514C7.34639 0.40349 7.17682 0.333252 7.00001 0.333252C6.8232 0.333252 6.65363 0.40349 6.52861 0.528514C6.40358 0.653538 6.33334 0.823108 6.33334 0.999919V8.33325H5.66668C5.48987 8.33325 5.3203 8.40349 5.19527 8.52851C5.07025 8.65354 5.00001 8.82311 5.00001 8.99992C5.00001 9.17673 5.07025 9.3463 5.19527 9.47132C5.3203 9.59635 5.48987 9.66659 5.66668 9.66659H8.33334C8.51015 9.66659 8.67972 9.59635 8.80475 9.47132C8.92977 9.3463 9.00001 9.17673 9.00001 8.99992C9.00001 8.82311 8.92977 8.65354 8.80475 8.52851C8.67972 8.40349 8.51015 8.33325 8.33334 8.33325Z" fill="#51545C"/>
</svg>
