<svg width="16" height="16" viewBox="0 0 16 16" fill="none" xmlns="http://www.w3.org/2000/svg">
<path d="M7.99992 12.6667C8.13177 12.6667 8.26067 12.6276 8.3703 12.5544C8.47993 12.4811 8.56538 12.377 8.61584 12.2552C8.6663 12.1334 8.6795 11.9993 8.65378 11.87C8.62805 11.7407 8.56456 11.6219 8.47132 11.5287C8.37809 11.4354 8.2593 11.3719 8.12998 11.3462C8.00066 11.3205 7.86661 11.3337 7.7448 11.3842C7.62298 11.4346 7.51886 11.5201 7.44561 11.6297C7.37235 11.7393 7.33325 11.8682 7.33325 12.0001C7.33325 12.1769 7.40349 12.3465 7.52851 12.4715C7.65354 12.5965 7.82311 12.6667 7.99992 12.6667ZM11.3333 12.6667C11.4651 12.6667 11.594 12.6276 11.7036 12.5544C11.8133 12.4811 11.8987 12.377 11.9492 12.2552C11.9996 12.1334 12.0128 11.9993 11.9871 11.87C11.9614 11.7407 11.8979 11.6219 11.8047 11.5287C11.7114 11.4354 11.5926 11.3719 11.4633 11.3462C11.334 11.3205 11.1999 11.3337 11.0781 11.3842C10.9563 11.4346 10.8522 11.5201 10.7789 11.6297C10.7057 11.7393 10.6666 11.8682 10.6666 12.0001C10.6666 12.1769 10.7368 12.3465 10.8618 12.4715C10.9869 12.5965 11.1564 12.6667 11.3333 12.6667ZM11.3333 10.0001C11.4651 10.0001 11.594 9.96098 11.7036 9.88773C11.8133 9.81447 11.8987 9.71035 11.9492 9.58854C11.9996 9.46672 12.0128 9.33267 11.9871 9.20335C11.9614 9.07403 11.8979 8.95525 11.8047 8.86201C11.7114 8.76877 11.5926 8.70528 11.4633 8.67956C11.334 8.65383 11.1999 8.66704 11.0781 8.71749C10.9563 8.76795 10.8522 8.8534 10.7789 8.96303C10.7057 9.07267 10.6666 9.20156 10.6666 9.33341C10.6666 9.51023 10.7368 9.67979 10.8618 9.80482C10.9869 9.92984 11.1564 10.0001 11.3333 10.0001ZM7.99992 10.0001C8.13177 10.0001 8.26067 9.96098 8.3703 9.88773C8.47993 9.81447 8.56538 9.71035 8.61584 9.58854C8.6663 9.46672 8.6795 9.33267 8.65378 9.20335C8.62805 9.07403 8.56456 8.95525 8.47132 8.86201C8.37809 8.76877 8.2593 8.70528 8.12998 8.67956C8.00066 8.65383 7.86661 8.66704 7.7448 8.71749C7.62298 8.76795 7.51886 8.8534 7.44561 8.96303C7.37235 9.07267 7.33325 9.20156 7.33325 9.33341C7.33325 9.51023 7.40349 9.67979 7.52851 9.80482C7.65354 9.92984 7.82311 10.0001 7.99992 10.0001ZM12.6666 2.00008H11.9999V1.33341C11.9999 1.1566 11.9297 0.987034 11.8047 0.86201C11.6796 0.736986 11.5101 0.666748 11.3333 0.666748C11.1564 0.666748 10.9869 0.736986 10.8618 0.86201C10.7368 0.987034 10.6666 1.1566 10.6666 1.33341V2.00008H5.33325V1.33341C5.33325 1.1566 5.26301 0.987034 5.13799 0.86201C5.01297 0.736986 4.8434 0.666748 4.66659 0.666748C4.48977 0.666748 4.32021 0.736986 4.19518 0.86201C4.07016 0.987034 3.99992 1.1566 3.99992 1.33341V2.00008H3.33325C2.80282 2.00008 2.29411 2.2108 1.91904 2.58587C1.54397 2.96094 1.33325 3.46965 1.33325 4.00008V13.3334C1.33325 13.8638 1.54397 14.3726 1.91904 14.7476C2.29411 15.1227 2.80282 15.3334 3.33325 15.3334H12.6666C13.197 15.3334 13.7057 15.1227 14.0808 14.7476C14.4559 14.3726 14.6666 13.8638 14.6666 13.3334V4.00008C14.6666 3.46965 14.4559 2.96094 14.0808 2.58587C13.7057 2.2108 13.197 2.00008 12.6666 2.00008ZM13.3333 13.3334C13.3333 13.5102 13.263 13.6798 13.138 13.8048C13.013 13.9298 12.8434 14.0001 12.6666 14.0001H3.33325C3.15644 14.0001 2.98687 13.9298 2.86185 13.8048C2.73682 13.6798 2.66659 13.5102 2.66659 13.3334V7.33341H13.3333V13.3334ZM13.3333 6.00008H2.66659V4.00008C2.66659 3.82327 2.73682 3.6537 2.86185 3.52868C2.98687 3.40365 3.15644 3.33341 3.33325 3.33341H3.99992V4.00008C3.99992 4.17689 4.07016 4.34646 4.19518 4.47149C4.32021 4.59651 4.48977 4.66675 4.66659 4.66675C4.8434 4.66675 5.01297 4.59651 5.13799 4.47149C5.26301 4.34646 5.33325 4.17689 5.33325 4.00008V3.33341H10.6666V4.00008C10.6666 4.17689 10.7368 4.34646 10.8618 4.47149C10.9869 4.59651 11.1564 4.66675 11.3333 4.66675C11.5101 4.66675 11.6796 4.59651 11.8047 4.47149C11.9297 4.34646 11.9999 4.17689 11.9999 4.00008V3.33341H12.6666C12.8434 3.33341 13.013 3.40365 13.138 3.52868C13.263 3.6537 13.3333 3.82327 13.3333 4.00008V6.00008ZM4.66659 10.0001C4.79844 10.0001 4.92733 9.96098 5.03697 9.88773C5.1466 9.81447 5.23205 9.71035 5.28251 9.58854C5.33296 9.46672 5.34617 9.33267 5.32044 9.20335C5.29472 9.07403 5.23122 8.95525 5.13799 8.86201C5.04475 8.76877 4.92597 8.70528 4.79665 8.67956C4.66733 8.65383 4.53328 8.66704 4.41146 8.71749C4.28965 8.76795 4.18553 8.8534 4.11227 8.96303C4.03902 9.07267 3.99992 9.20156 3.99992 9.33341C3.99992 9.51023 4.07016 9.67979 4.19518 9.80482C4.32021 9.92984 4.48977 10.0001 4.66659 10.0001ZM4.66659 12.6667C4.79844 12.6667 4.92733 12.6276 5.03697 12.5544C5.1466 12.4811 5.23205 12.377 5.28251 12.2552C5.33296 12.1334 5.34617 11.9993 5.32044 11.87C5.29472 11.7407 5.23122 11.6219 5.13799 11.5287C5.04475 11.4354 4.92597 11.3719 4.79665 11.3462C4.66733 11.3205 4.53328 11.3337 4.41146 11.3842C4.28965 11.4346 4.18553 11.5201 4.11227 11.6297C4.03902 11.7393 3.99992 11.8682 3.99992 12.0001C3.99992 12.1769 4.07016 12.3465 4.19518 12.4715C4.32021 12.5965 4.48977 12.6667 4.66659 12.6667Z" fill="black"/>
</svg>
