<?xml version="1.0" encoding="utf-8"?>
<!-- Generator: Adobe Illustrator 16.0.0, SVG Export Plug-In . SVG Version: 6.00 Build 0)  -->
<!DOCTYPE svg PUBLIC "-//W3C//DTD SVG 1.1//EN" "http://www.w3.org/Graphics/SVG/1.1/DTD/svg11.dtd">
<svg version="1.1" id="Layer_1" xmlns="http://www.w3.org/2000/svg" xmlns:xlink="http://www.w3.org/1999/xlink" x="0px" y="0px"
	 width="225px" height="225px" viewBox="0 0 225 225" enable-background="new 0 0 225 225" xml:space="preserve">
<path fill-rule="evenodd" clip-rule="evenodd" d="M105.986,113.063c-21.867-21.571-43.509-42.92-65.378-64.494
	c0.937-1.132,1.861-2.249,2.798-3.382c1.205-1.457,2.432-2.939,3.732-4.511c22.072,21.768,43.971,43.363,66.121,65.207
	c22.02-21.715,43.971-43.361,66.14-65.223c2.248,2.746,4.319,5.274,6.492,7.929c-21.812,21.518-43.452,42.868-65.351,64.473
	c21.774,21.485,43.463,42.885,65.346,64.478c-2.127,2.595-4.197,5.122-6.494,7.924c-22.08-21.774-43.977-43.37-66.127-65.214
	c-22.02,21.711-43.973,43.357-66.102,65.178c-2.229-2.664-4.273-5.107-6.566-7.848C62.342,156.124,84.026,134.729,105.986,113.063z"
	/>
</svg>
