<svg width="14" height="14" viewBox="0 0 14 14" fill="none" xmlns="http://www.w3.org/2000/svg">
<path d="M11.6667 6.99992H7.00001V2.33325C7.00001 1.93325 6.73334 1.66659 6.33334 1.66659C3.00001 1.66659 0.333344 4.33325 0.333344 7.66659C0.333344 10.9999 3.00001 13.6666 6.33334 13.6666C9.66668 13.6666 12.3333 10.9999 12.3333 7.66659C12.3333 7.26659 12.0667 6.99992 11.6667 6.99992ZM7.00001 12.2666C4.46668 12.6666 2.06668 10.8666 1.73334 8.33325C1.33334 5.79992 3.13334 3.39992 5.66668 3.06659V7.66659C5.66668 8.06659 5.93334 8.33325 6.33334 8.33325H10.9333C10.6667 10.3999 9.06668 11.9999 7.00001 12.2666ZM9.00001 0.333252C8.60001 0.333252 8.33334 0.599919 8.33334 0.999919V4.99992C8.33334 5.39992 8.60001 5.66659 9.00001 5.66659H13C13.4 5.66659 13.6667 5.39992 13.6667 4.99992C13.6667 2.39992 11.6 0.333252 9.00001 0.333252ZM9.66668 4.33325V1.73325C11 1.99992 12 2.99992 12.2667 4.33325H9.66668Z" fill="#C76400"/>
</svg>
