<svg width="9" height="5" viewBox="0 0 9 5" fill="none" xmlns="http://www.w3.org/2000/svg">
<path d="M8.76752 1.36938L5.09649 4.76323C5.01694 4.83826 4.92229 4.8978 4.81802 4.93844C4.71374 4.97908 4.60189 5 4.48893 5C4.37596 5 4.26411 4.97908 4.15984 4.93844C4.05556 4.8978 3.96092 4.83826 3.88137 4.76323L0.25312 1.36938C0.172915 1.29497 0.109254 1.20644 0.0658105 1.1089C0.0223668 1.01136 0 0.906738 0 0.801071C0 0.695404 0.0223668 0.590782 0.0658105 0.493242C0.109254 0.395701 0.172915 0.307172 0.25312 0.232761C0.41345 0.0836792 0.630333 0 0.856402 0C1.08247 0 1.29935 0.0836792 1.45968 0.232761L4.48893 3.06631L7.51817 0.232761C7.67756 0.0848851 7.89268 0.00151873 8.11717 0.00063467C8.22979 2.52724e-05 8.34143 0.020216 8.44569 0.0600495C8.54995 0.0998831 8.64478 0.158576 8.72474 0.232761C8.8078 0.304494 8.87485 0.390914 8.92201 0.487027C8.96916 0.58314 8.99549 0.687041 8.99947 0.792727C9.00345 0.898413 8.985 1.00379 8.94519 1.10277C8.90537 1.20174 8.84499 1.29236 8.76752 1.36938Z" fill="black"/>
</svg>
