<svg width="14" height="14" viewBox="0 0 14 14" fill="none" xmlns="http://www.w3.org/2000/svg">
<path d="M5.66668 7.66659H1.00001C0.823199 7.66659 0.65363 7.73682 0.528606 7.86185C0.403581 7.98687 0.333344 8.15644 0.333344 8.33325V12.9999C0.333344 13.1767 0.403581 13.3463 0.528606 13.4713C0.65363 13.5963 0.823199 13.6666 1.00001 13.6666H5.66668C5.84349 13.6666 6.01306 13.5963 6.13808 13.4713C6.26311 13.3463 6.33334 13.1767 6.33334 12.9999V8.33325C6.33334 8.15644 6.26311 7.98687 6.13808 7.86185C6.01306 7.73682 5.84349 7.66659 5.66668 7.66659ZM5.00001 12.3333H1.66668V8.99992H5.00001V12.3333ZM13 0.333252H8.33334C8.15653 0.333252 7.98696 0.40349 7.86194 0.528514C7.73692 0.653538 7.66668 0.823108 7.66668 0.999919V5.66659C7.66668 5.8434 7.73692 6.01297 7.86194 6.13799C7.98696 6.26301 8.15653 6.33325 8.33334 6.33325H13C13.1768 6.33325 13.3464 6.26301 13.4714 6.13799C13.5964 6.01297 13.6667 5.8434 13.6667 5.66659V0.999919C13.6667 0.823108 13.5964 0.653538 13.4714 0.528514C13.3464 0.40349 13.1768 0.333252 13 0.333252ZM12.3333 4.99992H9.00001V1.66659H12.3333V4.99992ZM13 7.66659H8.33334C8.15653 7.66659 7.98696 7.73682 7.86194 7.86185C7.73692 7.98687 7.66668 8.15644 7.66668 8.33325V12.9999C7.66668 13.1767 7.73692 13.3463 7.86194 13.4713C7.98696 13.5963 8.15653 13.6666 8.33334 13.6666H13C13.1768 13.6666 13.3464 13.5963 13.4714 13.4713C13.5964 13.3463 13.6667 13.1767 13.6667 12.9999V8.33325C13.6667 8.15644 13.5964 7.98687 13.4714 7.86185C13.3464 7.73682 13.1768 7.66659 13 7.66659ZM12.3333 12.3333H9.00001V8.99992H12.3333V12.3333ZM5.66668 0.333252H1.00001C0.823199 0.333252 0.65363 0.40349 0.528606 0.528514C0.403581 0.653538 0.333344 0.823108 0.333344 0.999919V5.66659C0.333344 5.8434 0.403581 6.01297 0.528606 6.13799C0.65363 6.26301 0.823199 6.33325 1.00001 6.33325H5.66668C5.84349 6.33325 6.01306 6.26301 6.13808 6.13799C6.26311 6.01297 6.33334 5.8434 6.33334 5.66659V0.999919C6.33334 0.823108 6.26311 0.653538 6.13808 0.528514C6.01306 0.40349 5.84349 0.333252 5.66668 0.333252ZM5.00001 4.99992H1.66668V1.66659H5.00001V4.99992Z" fill="#51545C"/>
</svg>
