<?xml version="1.0" encoding="utf-8"?>
<!-- Generator: Adobe Illustrator 16.0.0, SVG Export Plug-In . SVG Version: 6.00 Build 0)  -->
<!DOCTYPE svg PUBLIC "-//W3C//DTD SVG 1.1//EN" "http://www.w3.org/Graphics/SVG/1.1/DTD/svg11.dtd">
<svg version="1.1" id="Layer_1" xmlns="http://www.w3.org/2000/svg" xmlns:xlink="http://www.w3.org/1999/xlink" x="0px" y="0px"
	 width="20px" height="20px" viewBox="0 0 20 20" enable-background="new 0 0 20 20" xml:space="preserve">
<g>
	<path fill-rule="evenodd" clip-rule="evenodd" d="M13.753,15.536c-2.088,1.463-4.377,1.974-6.868,1.437
		c-2.004-0.431-3.633-1.489-4.882-3.112C-0.617,10.454-0.253,5.596,2.87,2.583c2.986-2.884,7.793-3.124,11.071-0.564
		c3.5,2.733,4.402,7.919,1.609,11.72c0.2,0.197,0.401,0.395,0.603,0.595c1.081,1.081,2.162,2.161,3.238,3.244
		c0.382,0.38,0.487,0.929,0.279,1.407c-0.21,0.484-0.688,0.79-1.221,0.767c-0.337-0.014-0.622-0.145-0.86-0.384
		c-1.25-1.25-2.5-2.501-3.751-3.751C13.812,15.588,13.781,15.562,13.753,15.536z M15.506,8.706c0-3.742-3.016-6.76-6.77-6.774
		C5,1.919,1.958,4.957,1.953,8.708c-0.005,3.744,3.035,6.781,6.779,6.778C12.484,15.482,15.506,12.458,15.506,8.706z"/>
</g>
</svg>
