<svg width="16" height="12" viewBox="0 0 16 12" fill="none" xmlns="http://www.w3.org/2000/svg">
<path d="M8.19999 6.14658C8.55571 5.83867 8.84102 5.45784 9.03657 5.02993C9.23212 4.60203 9.33333 4.13706 9.33332 3.66658C9.33332 2.78253 8.98213 1.93468 8.35701 1.30956C7.73189 0.684442 6.88405 0.333252 5.99999 0.333252C5.11593 0.333252 4.26809 0.684442 3.64297 1.30956C3.01785 1.93468 2.66666 2.78253 2.66666 3.66658C2.66665 4.13706 2.76786 4.60203 2.96341 5.02993C3.15896 5.45784 3.44427 5.83867 3.79999 6.14658C2.86675 6.56917 2.07497 7.2516 1.51931 8.11228C0.963653 8.97296 0.667638 9.97546 0.666656 10.9999C0.666656 11.1767 0.736894 11.3463 0.861919 11.4713C0.986943 11.5963 1.15651 11.6666 1.33332 11.6666C1.51013 11.6666 1.6797 11.5963 1.80473 11.4713C1.92975 11.3463 1.99999 11.1767 1.99999 10.9999C1.99999 9.93905 2.42142 8.92164 3.17156 8.17149C3.92171 7.42135 4.93912 6.99992 5.99999 6.99992C7.06086 6.99992 8.07827 7.42135 8.82842 8.17149C9.57856 8.92164 9.99999 9.93905 9.99999 10.9999C9.99999 11.1767 10.0702 11.3463 10.1953 11.4713C10.3203 11.5963 10.4898 11.6666 10.6667 11.6666C10.8435 11.6666 11.013 11.5963 11.1381 11.4713C11.2631 11.3463 11.3333 11.1767 11.3333 10.9999C11.3323 9.97546 11.0363 8.97296 10.4807 8.11228C9.92501 7.2516 9.13323 6.56917 8.19999 6.14658ZM5.99999 5.66658C5.60443 5.66658 5.21775 5.54929 4.88885 5.32952C4.55995 5.10976 4.30361 4.7974 4.15223 4.43195C4.00086 4.0665 3.96125 3.66437 4.03842 3.2764C4.11559 2.88844 4.30607 2.53208 4.58578 2.25237C4.86548 1.97267 5.22185 1.78219 5.60981 1.70501C5.99777 1.62784 6.3999 1.66745 6.76536 1.81883C7.13081 1.9702 7.44317 2.22655 7.66293 2.55544C7.88269 2.88434 7.99999 3.27102 7.99999 3.66658C7.99999 4.19702 7.78928 4.70573 7.4142 5.0808C7.03913 5.45587 6.53042 5.66658 5.99999 5.66658ZM12.4933 5.87992C12.92 5.39947 13.1987 4.80595 13.2959 4.17081C13.3931 3.53567 13.3046 2.88597 13.0412 2.29992C12.7777 1.71387 12.3505 1.21645 11.811 0.867534C11.2714 0.518619 10.6425 0.33308 9.99999 0.333252C9.82318 0.333252 9.65361 0.40349 9.52859 0.528514C9.40356 0.653538 9.33332 0.823108 9.33332 0.999919C9.33332 1.17673 9.40356 1.3463 9.52859 1.47132C9.65361 1.59635 9.82318 1.66659 9.99999 1.66659C10.5304 1.66659 11.0391 1.8773 11.4142 2.25237C11.7893 2.62744 12 3.13615 12 3.66658C11.999 4.01674 11.9062 4.36052 11.7307 4.66353C11.5552 4.96654 11.3032 5.21817 11 5.39325C10.9011 5.45027 10.8186 5.53169 10.7602 5.62975C10.7019 5.7278 10.6696 5.83919 10.6667 5.95325C10.6639 6.06643 10.6899 6.17845 10.7424 6.27876C10.7949 6.37906 10.8721 6.46435 10.9667 6.52659L11.2267 6.69992L11.3133 6.74658C12.1169 7.12773 12.7949 7.73058 13.2673 8.48413C13.7398 9.23768 13.987 10.1105 13.98 10.9999C13.98 11.1767 14.0502 11.3463 14.1753 11.4713C14.3003 11.5963 14.4698 11.6666 14.6467 11.6666C14.8235 11.6666 14.993 11.5963 15.1181 11.4713C15.2431 11.3463 15.3133 11.1767 15.3133 10.9999C15.3188 9.97687 15.0625 8.96942 14.569 8.07329C14.0754 7.17717 13.3609 6.42213 12.4933 5.87992Z" fill="#C76400"/>
</svg>
