<?xml version="1.0" encoding="utf-8"?>
<!-- Generator: Adobe Illustrator 16.0.0, SVG Export Plug-In . SVG Version: 6.00 Build 0)  -->
<!DOCTYPE svg PUBLIC "-//W3C//DTD SVG 1.1//EN" "http://www.w3.org/Graphics/SVG/1.1/DTD/svg11.dtd">
<svg version="1.1" id="Layer_1" xmlns="http://www.w3.org/2000/svg" xmlns:xlink="http://www.w3.org/1999/xlink" x="0px" y="0px"
	 width="225px" height="225px" viewBox="0 0 225 225" enable-background="new 0 0 225 225" xml:space="preserve">
<g>
	<path d="M186.351,61.891c0,2.574-2.106,4.68-4.681,4.68H43.758c-2.574,0-4.68-2.106-4.68-4.68v-0.64c0-2.574,2.105-4.68,4.68-4.68
		H181.67c2.574,0,4.681,2.106,4.681,4.68V61.891z"/>
</g>
<g>
	<path d="M186.351,163.632c0,2.573-2.106,4.68-4.681,4.68H43.758c-2.574,0-4.68-2.106-4.68-4.68v-0.641
		c0-2.573,2.105-4.68,4.68-4.68H181.67c2.574,0,4.681,2.106,4.681,4.68V163.632z"/>
</g>
<g>
	<path d="M186.351,112.853c0,2.574-2.106,4.68-4.681,4.68H43.758c-2.574,0-4.68-2.106-4.68-4.68v-0.64c0-2.574,2.105-4.68,4.68-4.68
		H181.67c2.574,0,4.681,2.106,4.681,4.68V112.853z"/>
</g>
</svg>
