<svg width="14" height="14" viewBox="0 0 14 14" fill="none" xmlns="http://www.w3.org/2000/svg">
<path d="M4.99998 6.99988H3.66665C3.48984 6.99988 3.32027 7.07012 3.19525 7.19515C3.07022 7.32017 2.99998 7.48974 2.99998 7.66655C2.99998 7.84336 3.07022 8.01293 3.19525 8.13795C3.32027 8.26298 3.48984 8.33322 3.66665 8.33322H4.99998C5.1768 8.33322 5.34636 8.26298 5.47139 8.13795C5.59641 8.01293 5.66665 7.84336 5.66665 7.66655C5.66665 7.48974 5.59641 7.32017 5.47139 7.19515C5.34636 7.07012 5.1768 6.99988 4.99998 6.99988ZM4.33332 5.66655H6.99998C7.1768 5.66655 7.34636 5.59631 7.47139 5.47129C7.59641 5.34626 7.66665 5.17669 7.66665 4.99988C7.66665 4.82307 7.59641 4.6535 7.47139 4.52848C7.34636 4.40345 7.1768 4.33322 6.99998 4.33322H4.33332C4.15651 4.33322 3.98694 4.40345 3.86191 4.52848C3.73689 4.6535 3.66665 4.82307 3.66665 4.99988C3.66665 5.17669 3.73689 5.34626 3.86191 5.47129C3.98694 5.59631 4.15651 5.66655 4.33332 5.66655ZM4.99998 9.66655H3.66665C3.48984 9.66655 3.32027 9.73679 3.19525 9.86181C3.07022 9.98684 2.99998 10.1564 2.99998 10.3332C2.99998 10.51 3.07022 10.6796 3.19525 10.8046C3.32027 10.9296 3.48984 10.9999 3.66665 10.9999H4.99998C5.1768 10.9999 5.34636 10.9296 5.47139 10.8046C5.59641 10.6796 5.66665 10.51 5.66665 10.3332C5.66665 10.1564 5.59641 9.98684 5.47139 9.86181C5.34636 9.73679 5.1768 9.66655 4.99998 9.66655ZM13 6.99988H11V0.999883C11.0005 0.882409 10.9699 0.766899 10.9113 0.665047C10.8528 0.563195 10.7684 0.478619 10.6667 0.419883C10.5653 0.361371 10.4503 0.330566 10.3333 0.330566C10.2163 0.330566 10.1013 0.361371 9.99998 0.419883L7.99998 1.56655L5.99998 0.419883C5.89864 0.361371 5.78368 0.330566 5.66665 0.330566C5.54963 0.330566 5.43466 0.361371 5.33332 0.419883L3.33332 1.56655L1.33332 0.419883C1.23197 0.361371 1.11701 0.330566 0.999985 0.330566C0.88296 0.330566 0.767998 0.361371 0.666652 0.419883C0.564915 0.478619 0.480506 0.563195 0.42197 0.665047C0.363435 0.766899 0.332852 0.882409 0.333318 0.999883V11.6665C0.333318 12.197 0.544032 12.7057 0.919105 13.0808C1.29418 13.4558 1.80289 13.6665 2.33332 13.6665H11.6667C12.1971 13.6665 12.7058 13.4558 13.0809 13.0808C13.4559 12.7057 13.6667 12.197 13.6667 11.6665V7.66655C13.6667 7.48974 13.5964 7.32017 13.4714 7.19515C13.3464 7.07012 13.1768 6.99988 13 6.99988ZM2.33332 12.3332C2.15651 12.3332 1.98694 12.263 1.86191 12.138C1.73689 12.0129 1.66665 11.8434 1.66665 11.6665V2.15322L2.99998 2.91322C3.10288 2.96696 3.21724 2.99502 3.33332 2.99502C3.4494 2.99502 3.56376 2.96696 3.66665 2.91322L5.66665 1.76655L7.66665 2.91322C7.76954 2.96696 7.8839 2.99502 7.99998 2.99502C8.11607 2.99502 8.23043 2.96696 8.33332 2.91322L9.66665 2.15322V11.6665C9.66845 11.894 9.70904 12.1194 9.78665 12.3332H2.33332ZM12.3333 11.6665C12.3333 11.8434 12.2631 12.0129 12.1381 12.138C12.013 12.263 11.8435 12.3332 11.6667 12.3332C11.4898 12.3332 11.3203 12.263 11.1952 12.138C11.0702 12.0129 11 11.8434 11 11.6665V8.33322H12.3333V11.6665ZM8.03998 9.77988C8.00282 9.75465 7.96247 9.73448 7.91998 9.71988C7.88029 9.69958 7.83747 9.68606 7.79332 9.67988C7.68621 9.65844 7.57548 9.66364 7.47086 9.69502C7.36624 9.72641 7.27093 9.78302 7.19332 9.85988C7.0715 9.98764 7.00244 10.1567 6.99998 10.3332C6.99892 10.4199 7.01477 10.5059 7.04665 10.5865C7.08289 10.6676 7.13247 10.7419 7.19332 10.8065C7.25812 10.8654 7.33253 10.9128 7.41332 10.9466C7.49312 10.9818 7.5794 11 7.66665 11C7.7539 11 7.84018 10.9818 7.91998 10.9466C8.00077 10.9128 8.07518 10.8654 8.13998 10.8065C8.20177 10.7443 8.25066 10.6704 8.28383 10.5892C8.31701 10.5079 8.33383 10.421 8.33332 10.3332C8.33086 10.1567 8.26181 9.98764 8.13998 9.85988C8.1083 9.83121 8.07491 9.8045 8.03998 9.77988ZM8.13332 7.19322C8.05547 7.11741 7.96028 7.06178 7.85602 7.03116C7.75176 7.00055 7.6416 6.99589 7.53513 7.01758C7.42866 7.03926 7.3291 7.08665 7.24513 7.1556C7.16115 7.22456 7.0953 7.313 7.05332 7.41322C7.01182 7.51422 6.99577 7.62386 7.00658 7.73251C7.01738 7.84117 7.0547 7.94551 7.11527 8.03636C7.17584 8.12721 7.2578 8.20179 7.35394 8.25356C7.45008 8.30532 7.55746 8.33267 7.66665 8.33322C7.84346 8.33322 8.01303 8.26298 8.13806 8.13795C8.26308 8.01293 8.33332 7.84336 8.33332 7.66655C8.33226 7.57943 8.31415 7.49336 8.27998 7.41322C8.24787 7.32999 8.19779 7.25487 8.13332 7.19322Z" fill="#51545C"/>
</svg>
