<svg width="14" height="14" viewBox="0 0 14 14" fill="none" xmlns="http://www.w3.org/2000/svg">
<path d="M12.9131 10.5L11.1064 7.38C11.4761 6.701 11.6687 5.93978 11.6664 5.16667C11.6664 3.92899 11.1747 2.742 10.2996 1.86683C9.42439 0.991665 8.2374 0.5 6.99972 0.5C5.76205 0.5 4.57506 0.991665 3.69989 1.86683C2.82472 2.742 2.33306 3.92899 2.33306 5.16667C2.33076 5.93978 2.52336 6.701 2.89306 7.38L1.08639 10.5C1.02776 10.6015 0.996955 10.7167 0.997071 10.834C0.997186 10.9512 1.02822 11.0664 1.08705 11.1678C1.14588 11.2692 1.23041 11.3534 1.33213 11.4117C1.43384 11.47 1.54914 11.5005 1.66639 11.5H3.57972L4.55306 13.14C4.58587 13.1944 4.62628 13.2437 4.67306 13.2867C4.79664 13.4058 4.96141 13.4726 5.13306 13.4733H5.22639C5.32704 13.4596 5.4232 13.423 5.50755 13.3664C5.5919 13.3097 5.66219 13.2346 5.71306 13.1467L6.99972 10.9333L8.28639 13.1667C8.33801 13.2534 8.40863 13.3272 8.49293 13.3826C8.57723 13.4381 8.67301 13.4736 8.77306 13.4867H8.86639C9.04034 13.4877 9.20781 13.4207 9.33306 13.3C9.37789 13.2595 9.41613 13.2123 9.44639 13.16L10.4197 11.52H12.3331C12.4505 11.5205 12.566 11.4899 12.6679 11.4313C12.7697 11.3728 12.8543 11.2884 12.9131 11.1867C12.9754 11.083 13.0083 10.9643 13.0083 10.8433C13.0083 10.7224 12.9754 10.6037 12.9131 10.5ZM5.12639 11.52L4.53306 10.5267C4.47463 10.4281 4.3918 10.3463 4.29254 10.2891C4.19328 10.2318 4.08095 10.2012 3.96639 10.2H2.81306L3.76639 8.54667C4.42287 9.17925 5.25027 9.6057 6.14639 9.77333L5.12639 11.52ZM6.99972 8.5C6.34045 8.5 5.69599 8.3045 5.14782 7.93823C4.59966 7.57196 4.17242 7.05136 3.92012 6.44228C3.66783 5.83319 3.60182 5.16297 3.73044 4.51637C3.85906 3.86976 4.17653 3.27582 4.6427 2.80964C5.10888 2.34347 5.70282 2.026 6.34942 1.89738C6.99603 1.76877 7.66625 1.83478 8.27533 2.08707C8.88442 2.33936 9.40502 2.7666 9.77129 3.31477C10.1376 3.86293 10.3331 4.5074 10.3331 5.16667C10.3331 6.05072 9.98187 6.89857 9.35675 7.52369C8.73163 8.14881 7.88378 8.5 6.99972 8.5ZM10.0331 10.2C9.91849 10.2012 9.80617 10.2318 9.70691 10.2891C9.60765 10.3463 9.52481 10.4281 9.46639 10.5267L8.87306 11.52L7.85972 9.75333C8.75271 9.58226 9.57703 9.15621 10.2331 8.52667L11.1864 10.18L10.0331 10.2Z" fill="#C76400"/>
</svg>
