<svg width="7" height="9" viewBox="0 0 7 9" fill="none" xmlns="http://www.w3.org/2000/svg">
<path d="M0.636294 3.68178H6.36348C6.47428 3.68178 6.57019 3.64132 6.65112 3.56035C6.73201 3.47939 6.77262 3.38352 6.77262 3.27273C6.77262 3.16193 6.73203 3.0661 6.65112 2.98504L3.78752 0.121433C3.70661 0.0405674 3.61076 0 3.4999 0C3.38903 0 3.29319 0.0405674 3.21221 0.121433L0.348606 2.98504C0.267628 3.06602 0.227173 3.16193 0.227173 3.27273C0.227173 3.3835 0.267628 3.47939 0.348606 3.56035C0.429674 3.64132 0.525518 3.68178 0.636294 3.68178Z" fill="#1E324E"/>
<path d="M6.36348 5.31836H0.636294C0.525428 5.31836 0.429584 5.35884 0.348606 5.43973C0.267628 5.5207 0.227173 5.61655 0.227173 5.72735C0.227173 5.83814 0.267628 5.93406 0.348606 6.01499L3.21221 8.87854C3.29328 8.95952 3.38912 9.00007 3.4999 9.00007C3.61067 9.00007 3.70661 8.95952 3.78752 8.87854L6.65112 6.01497C6.73201 5.93406 6.77262 5.83814 6.77262 5.72732C6.77262 5.61655 6.73203 5.5207 6.65112 5.4397C6.57021 5.35875 6.47428 5.31836 6.36348 5.31836Z" fill="#1E324E"/>
</svg>
